<svg width="39" height="40" viewBox="0 0 39 40" fill="none" xmlns="http://www.w3.org/2000/svg">
<rect x="0.82373" width="37.647" height="40" rx="18" fill="#202020"/>
<g clip-path="url(#clip0_5806_30)">
<path d="M15.5059 9.44949C14.4419 9.50283 13.7153 9.68324 13.0801 9.94844C12.4227 10.2207 11.8655 10.5859 11.3111 11.1771C10.7567 11.7683 10.4153 12.3607 10.1609 13.0603C9.91468 13.7367 9.74788 14.5093 9.70088 15.6405C9.65388 16.7716 9.64348 17.1352 9.64868 20.0205C9.65388 22.9058 9.66588 23.2675 9.71748 24.401C9.76828 25.5313 9.93748 26.3031 10.1871 26.9782C10.4437 27.6767 10.7871 28.2685 11.3437 28.8578C11.9003 29.447 12.4575 29.8089 13.1175 30.0796C13.7535 30.3408 14.4809 30.5189 15.5453 30.5684C16.6097 30.6179 16.9523 30.6294 19.6671 30.6238C22.3819 30.6183 22.7237 30.6056 23.7903 30.5518C24.8569 30.498 25.5795 30.317 26.2151 30.0531C26.8725 29.7798 27.4299 29.4156 27.9841 28.824C28.5383 28.2324 28.8795 27.6395 29.1337 26.9395C29.3801 26.2638 29.5475 25.4909 29.5937 24.3608C29.6403 23.2267 29.6513 22.8646 29.6461 19.9797C29.6409 17.0948 29.6287 16.7331 29.5781 15.6001C29.5275 14.467 29.3581 13.6976 29.1087 13.022C28.8517 12.3236 28.5087 11.7322 27.9523 11.1425C27.3959 10.5528 26.8375 10.1905 26.1789 9.92103C25.5425 9.65944 24.8155 9.48115 23.7511 9.43228C22.6867 9.3834 22.3441 9.37087 19.6283 9.37639C16.9125 9.38192 16.5725 9.39424 15.5059 9.44949ZM15.6227 28.6569C14.6477 28.6119 14.1183 28.4398 13.7655 28.2957C13.2983 28.1044 12.9655 27.8732 12.6139 27.5033C12.2623 27.1333 12.0463 26.7784 11.8639 26.2831C11.7269 25.9083 11.5619 25.3464 11.5163 24.3105C11.4667 23.1908 11.4563 22.8546 11.4505 20.018C11.4447 17.1813 11.4549 16.8456 11.5011 15.7255C11.5427 14.6904 11.7057 14.1273 11.8411 13.7526C12.0211 13.2556 12.2379 12.9026 12.5869 12.5293C12.9359 12.1559 13.2689 11.926 13.7355 11.7322C14.0879 11.586 14.6167 11.4121 15.5913 11.3628C16.6459 11.3097 16.9619 11.2991 19.6313 11.2929C22.3007 11.2868 22.6175 11.2974 23.6725 11.3467C24.6467 11.3917 25.1769 11.5632 25.5291 11.7079C25.9965 11.8992 26.3291 12.1289 26.6805 12.5004C27.0319 12.8718 27.2485 13.2243 27.4309 13.7212C27.5687 14.0945 27.7323 14.6562 27.7783 15.6923C27.8285 16.8128 27.8399 17.1488 27.8447 19.9848C27.8495 22.8208 27.8401 23.1577 27.7939 24.2773C27.7513 25.3133 27.5897 25.876 27.4539 26.2512C27.2739 26.7474 27.0569 27.1012 26.7077 27.4744C26.3585 27.8475 26.0259 28.0775 25.5591 28.2713C25.2071 28.4172 24.6777 28.5915 23.7039 28.6408C22.6493 28.6935 22.3333 28.7045 19.6629 28.7107C16.9925 28.7169 16.6775 28.7054 15.6229 28.6569M23.7749 14.3215C23.7753 14.5737 23.846 14.8201 23.9782 15.0295C24.1104 15.239 24.2981 15.4021 24.5176 15.4982C24.737 15.5943 24.9784 15.619 25.2111 15.5694C25.4438 15.5198 25.6574 15.3979 25.8249 15.2193C25.9925 15.0406 26.1064 14.8132 26.1522 14.5657C26.1981 14.3183 26.1739 14.062 26.0826 13.8292C25.9914 13.5964 25.8372 13.3975 25.6396 13.2578C25.442 13.1181 25.2098 13.0439 24.9725 13.0444C24.6543 13.045 24.3494 13.18 24.1248 13.4194C23.9002 13.6589 23.7743 13.9834 23.7749 14.3215ZM14.5129 20.0107C14.5185 23.024 16.8217 25.4612 19.6571 25.4554C22.4925 25.4497 24.7879 23.0027 24.7825 19.9895C24.7771 16.9762 22.4733 14.5384 19.6375 14.5444C16.8017 14.5503 14.5075 16.9979 14.5129 20.0107ZM16.3141 20.0069C16.3128 19.3064 16.507 18.6213 16.8722 18.0381C17.2374 17.4549 17.7571 16.9998 18.3657 16.7305C18.9743 16.4611 19.6444 16.3896 20.2913 16.5249C20.9382 16.6602 21.5328 16.9962 21.9999 17.4906C22.467 17.9849 22.7856 18.6153 22.9155 19.3021C23.0454 19.9888 22.9807 20.7011 22.7296 21.3488C22.4786 21.9965 22.0523 22.5505 21.5049 22.9409C20.9574 23.3312 20.3134 23.5403 19.6541 23.5416C19.2163 23.5426 18.7827 23.452 18.3779 23.2748C17.9731 23.0977 17.6051 22.8376 17.295 22.5094C16.9848 22.1811 16.7385 21.7912 16.5702 21.3618C16.4019 20.9324 16.3149 20.472 16.3141 20.0069Z" fill="white"/>
</g>
<defs>
<clipPath id="clip0_5806_30">
<rect width="20" height="21.25" fill="white" transform="translate(9.64746 9.375)"/>
</clipPath>
</defs>
</svg>
