<svg width="38" height="40" viewBox="0 0 38 40" fill="none" xmlns="http://www.w3.org/2000/svg">
<g clip-path="url(#clip0_5806_34)">
<rect x="0.117676" width="37.647" height="40" rx="18" fill="#202020"/>
<g clip-path="url(#clip1_5806_34)">
<path d="M27.3052 15.3993C27.318 15.5962 27.318 15.7931 27.318 15.9918C27.318 22.0459 22.9802 29.0281 15.0484 29.0281V29.0245C12.7054 29.0281 10.411 28.315 8.43848 26.9705C8.77918 27.014 9.12159 27.0358 9.46485 27.0367C11.4066 27.0385 13.2928 26.3463 14.8204 25.0716C12.9752 25.0344 11.3571 23.7561 10.7918 21.8898C11.4382 22.0223 12.1042 21.9951 12.7387 21.8109C10.7269 21.3791 9.27956 19.501 9.27956 17.32C9.27956 17.3 9.27956 17.281 9.27956 17.2619C9.87899 17.6167 10.5501 17.8135 11.2367 17.8353C9.34189 16.4898 8.75783 13.8116 9.90204 11.7177C12.0914 14.5801 15.3217 16.3202 18.7893 16.5044C18.4418 14.913 18.9166 13.2455 20.0369 12.1268C21.7737 10.3922 24.5053 10.4811 26.1379 12.3255C27.1036 12.1232 28.0293 11.7467 28.8763 11.2132C28.5544 12.2738 27.8807 13.1747 26.9807 13.7472C27.8354 13.6401 28.6705 13.397 29.457 13.0259C28.878 13.9477 28.1488 14.7506 27.3052 15.3993Z" fill="white"/>
</g>
</g>
<defs>
<clipPath id="clip0_5806_34">
<rect width="37.647" height="40" fill="white" transform="translate(0.117676)"/>
</clipPath>
<clipPath id="clip1_5806_34">
<rect width="21.1765" height="22.5" fill="white" transform="translate(8.35303 8.75)"/>
</clipPath>
</defs>
</svg>
